<svg xmlns="http://www.w3.org/2000/svg" width="40" height="40" viewBox="0 0 40 40">
    <path fill="#E4EBE7" d="M35.33 0c2.546 0 4.61 1.96 4.61 4.378v23.35c0 2.417-2.064 4.377-4.61 4.377H8.957c-.407.005-.797.157-1.091.423L0 40V4.378C0 1.96 2.063 0 4.608 0zm0 2.919H4.609c-.848 0-1.536.653-1.536 1.459v28.588L5.7 30.471c.863-.822 2.035-1.284 3.257-1.285H35.33c.848 0 1.536-.653 1.536-1.459V4.378c0-.806-.688-1.46-1.536-1.46zM21.507 17.512v2.918H10.753v-2.918h10.753zm7.68-5.837v2.918H10.753v-2.918h18.433z"/>
</svg>
