<svg xmlns="http://www.w3.org/2000/svg" width="40" height="40" viewBox="0 0 40 40">
    <path fill="#E4EBE7" d="M35.34.053c2.543 0 4.603 1.93 4.603 4.309V27.34c0 2.38-2.06 4.309-4.602 4.309H9c-.407.005-.796.154-1.09.416L.057 39.42V4.362c0-2.38 2.06-4.309 4.602-4.309zm0 2.873H4.66c-.848 0-1.535.643-1.535 1.436v28.134l2.623-2.456c.863-.808 2.032-1.262 3.253-1.263h26.34c.847 0 1.534-.643 1.534-1.437V4.362c0-.793-.687-1.436-1.534-1.436zM25.753 8.51l2.163 2.025-5.43 5.084 5.43 5.084-2.163 2.025-5.431-5.084-5.43 5.084-2.164-2.025 5.431-5.084-5.43-5.084L14.89 8.51l5.431 5.084 5.43-5.084z"/>
</svg>
