<?xml version="1.0" encoding="UTF-8"?>
<svg width="17px" height="24px" viewBox="0 0 17 24" version="1.1" xmlns="http://www.w3.org/2000/svg" xmlns:xlink="http://www.w3.org/1999/xlink">
    <!-- Generator: Sketch 59.1 (86144) - https://sketch.com -->
    <title>icon-man</title>
    <desc>Created with Sketch.</desc>
    <g id="Analytics" stroke="none" stroke-width="1" fill="none" fill-rule="evenodd">
        <g id="Analytics-Main" transform="translate(-1156.000000, -963.000000)">
            <g id="Cart-Age" transform="translate(1032.000000, 884.000000)">
                <g id="Man" transform="translate(120.000000, 69.000000)">
                    <g id="icon-man" transform="translate(0.000000, 10.000000)">
                        <rect id="Rectangle" x="0" y="0" width="24" height="24"></rect>
                        <path d="M16.0285645,7.37530519 C18.2752685,4.34747316 16.1131592,0 12.312439,0 C8.50805664,0 6.35198973,4.35076903 8.59649659,7.37530519 C6.05938722,7.39086914 4,9.45922852 4,12 L4,17.53125 C4,18.0490723 4.41967773,18.46875 4.9375,18.46875 L7.68756105,18.46875 L7.68756105,23.0625 C7.68756105,23.5803223 8.10723878,24 8.62506105,24 L16,24 C16.5178223,24 16.9375,23.5803223 16.9375,23.0625 L16.9375,18.46875 L19.6873779,18.46875 C20.2052002,18.46875 20.6248779,18.0490723 20.6248779,17.53125 L20.6248779,12 C20.6248779,9.45922852 18.5656738,7.39086914 16.0285645,7.37530519 Z M12.312439,1.875 C13.8289185,1.875 15.0625,3.10858153 15.0625,4.62506105 C15.0625,6.14135742 13.8289185,7.37512209 12.312439,7.37512209 C10.7961426,7.37512209 9.56237791,6.14135742 9.56237791,4.62506105 C9.56256105,3.10858153 10.7961426,1.875 12.312439,1.875 Z M18.7498779,16.59375 L16,16.59375 C15.4821777,16.59375 15.0625,17.0134277 15.0625,17.53125 L15.0625,22.125 L9.56256105,22.125 L9.56256105,17.53125 C9.56256105,17.0134277 9.14288331,16.59375 8.62506105,16.59375 L5.875,16.59375 L5.875,12 C5.875,10.4837036 7.10858153,9.24993895 8.62506105,9.24993895 L16,9.24993895 C17.5162964,9.24993895 18.7498779,10.4837036 18.7498779,12 L18.7498779,16.59375 Z" id="Shape" fill="#E4EBE7" fill-rule="nonzero"></path>
                    </g>
                </g>
            </g>
        </g>
    </g>
</svg>