<?xml version="1.0" encoding="UTF-8"?>
<svg width="17px" height="24px" viewBox="0 0 17 24" version="1.1" xmlns="http://www.w3.org/2000/svg" xmlns:xlink="http://www.w3.org/1999/xlink">
    <!-- Generator: Sketch 59.1 (86144) - https://sketch.com -->
    <title>icon-woman</title>
    <desc>Created with Sketch.</desc>
    <g id="Analytics" stroke="none" stroke-width="1" fill="none" fill-rule="evenodd">
        <g id="Analytics-Main" transform="translate(-1279.000000, -963.000000)">
            <g id="Cart-Age" transform="translate(1032.000000, 884.000000)">
                <g id="Woman" transform="translate(243.000000, 69.000000)">
                    <g id="icon-woman" transform="translate(0.000000, 10.000000)">
                        <rect id="Rectangle" x="0" y="0" width="24" height="24"></rect>
                        <path d="M20.4947905,18.9190037 L15.1548375,8.2387323 C16.2252038,7.39260015 16.9132573,6.08319692 16.9132573,4.6158977 C16.9132573,2.07073946 14.8425179,0 12.2971768,0 C9.75201861,0 7.68127914,2.07073946 7.68127914,4.61608048 C7.68127914,6.08319692 8.36933262,7.39260015 9.43969899,8.2387323 L4.099746,18.9190037 C3.7892539,19.5398052 4.24119447,20.2729979 4.93655794,20.2729979 L7.68127914,20.2729979 L7.68127914,23.0177191 C7.68127914,23.5345359 8.10014198,23.9533988 8.61695878,23.9533988 L15.9775777,23.9533988 C16.4943945,23.9533988 16.9132573,23.5345359 16.9132573,23.0177191 L16.9132573,20.2729979 L19.6579785,20.2729979 C20.3520628,20.2729979 20.8058308,19.5409017 20.4947905,18.9190037 Z M12.2971768,1.87135928 C13.8107118,1.87135928 15.041898,3.10254554 15.041898,4.61608048 C15.041898,6.12943264 13.8107118,7.36080169 12.2971768,7.36080169 C10.7838247,7.36080169 9.55263842,6.12943264 9.55263842,4.61608048 C9.55263842,3.10254554 10.7838247,1.87135928 12.2971768,1.87135928 Z M15.9775777,18.4016386 C15.4607609,18.4016386 15.041898,18.8205015 15.041898,19.3373183 L15.041898,22.0820395 L9.55263842,22.0820395 L9.55263842,19.3373183 C9.55263842,18.8205015 9.13377558,18.4016386 8.61695878,18.4016386 L6.45064109,18.4016386 L11.1125918,9.0775545 C11.8872688,9.28351368 12.7070849,9.28351368 13.4819446,9.0775545 L18.1438954,18.4016386 L15.9775777,18.4016386 Z" id="Shape" fill="#E4EBE7" fill-rule="nonzero"></path>
                    </g>
                </g>
            </g>
        </g>
    </g>
</svg>